<svg width="32" height="34" viewBox="0 0 32 34" fill="none" xmlns="http://www.w3.org/2000/svg">
<path d="M26.9102 20.9131L29.0499 19.8662C29.5759 19.6089 29.7692 18.9567 29.4684 18.4543L26.7989 13.9955L16.3622 9.97827C16.1292 9.88859 15.8711 9.8893 15.6386 9.98028L5.08979 14.1079L2.5157 18.468C2.22173 18.966 2.41011 19.6087 2.92637 19.8692L5.08979 20.9608M26.7989 13.9955L16 18.8263M16 18.8263L18.5608 23.8988C18.8075 24.3875 19.4013 24.587 19.893 24.3464L26.9102 20.9131M16 18.8263V32.195M16 18.8263L5.08979 14.1079M16 18.8263L13.5393 23.8881C13.2991 24.382 12.7055 24.5899 12.2097 24.3536L5.08979 20.9608M26.9102 20.9131L26.8095 27.2577C26.8031 27.6622 26.5535 28.023 26.1772 28.1717L16 32.195L5.72541 28.1747C5.34206 28.0247 5.08979 27.6551 5.08979 27.2435V20.9608" stroke="#3192B3" stroke-width="2"/>
<path d="M18.4104 10.7156L15.5796 9.61621L15.8627 13.7841L18.4104 10.7156Z" fill="#3192B3"/>
<path d="M15.5796 9.61621L18.4104 10.7156L19.1042 10.0752C19.9506 9.29397 19.0228 7.93662 17.9875 8.44163L15.5796 9.61621Z" fill="#3192B3"/>
<path d="M15.8627 13.7841L21.2413 11.8115L18.4104 10.7156L15.8627 13.7841Z" fill="#3192B3"/>
<path d="M15.5796 9.61621L13.8711 8.98683C13.0366 8.67944 12.9885 7.51736 13.7946 7.14195L26.7726 1.09831C27.5419 0.740065 28.3797 1.44253 28.161 2.2625L25.4928 12.2683C25.3394 12.8434 24.7207 13.1581 24.1656 12.9433L21.2413 11.8115M15.5796 9.61621L18.4104 10.7156M21.2413 11.8115L15.8627 13.7841L15.5796 9.61621M15.5796 9.61621L17.9875 8.44163C19.0228 7.93662 19.9506 9.29397 19.1042 10.0752L18.4104 10.7156M21.2413 11.8115L18.4104 10.7156M18.4104 10.7156L15.8627 13.7841" stroke="#3192B3" stroke-width="2"/>
</svg>
